<?xml version="1.0" encoding="utf-8"?>

<svg version="1.1" id="Camada_1" xmlns="http://www.w3.org/2000/svg" xmlns:xlink="http://www.w3.org/1999/xlink" x="0px" y="0px"
	 viewBox="0 0 1000.99 1000" style="enable-background:new 0 0 1000.99 1000;" xml:space="preserve">
<style type="text/css">
	.st0{fill:#FFFFFF;}
	.st1{fill:#E30016;}
	.st2{fill:#E5050F;}
	.st3{fill-rule:evenodd;clip-rule:evenodd;fill:#FFFFFF;}
	.st4{fill-rule:evenodd;clip-rule:evenodd;fill:#B1B1B1;}
	.st5{fill-rule:evenodd;clip-rule:evenodd;fill:#D4301F;}
	.st6{fill-rule:evenodd;clip-rule:evenodd;fill:#FECC00;}
	.st7{fill:none;}
</style>
<g>
	<g>
		<g id="g3460_8_">
			<g id="g3313_8_">
				<g id="g3296_8_" transform="translate(1259.98, 3.93111e-07)">
					<g id="path3278_11_">
						<path class="st0" d="M-756.54,898.53c-41.01,0-80.79-8.03-118.24-23.87c-36.17-15.3-68.66-37.2-96.56-65.1
							c-27.9-27.9-49.8-60.38-65.1-96.56c-15.84-37.45-23.87-77.24-23.87-118.24s8.03-80.79,23.87-118.24
							c15.3-36.17,37.2-68.66,65.1-96.56c27.9-27.9,60.38-49.8,96.56-65.1c37.45-15.84,77.24-23.87,118.24-23.87
							c41.01,0,80.79,8.03,118.24,23.87c36.17,15.3,68.66,37.2,96.56,65.1c27.9,27.9,49.8,60.38,65.1,96.56
							c15.84,37.45,23.87,77.24,23.87,118.24s-8.03,80.79-23.87,118.24c-15.3,36.17-37.2,68.66-65.1,96.56
							c-27.9,27.9-60.38,49.8-96.56,65.1C-675.75,890.5-715.53,898.53-756.54,898.53z"/>
						<path class="st1" d="M-756.54,296.69c164.62,0,298.07,133.45,298.07,298.07s-133.45,298.07-298.07,298.07
							s-298.07-133.45-298.07-298.07S-921.16,296.69-756.54,296.69 M-756.54,285.29c-41.77,0-82.3,8.18-120.46,24.32
							c-36.85,15.59-69.95,37.9-98.37,66.32c-28.42,28.42-50.73,61.51-66.32,98.37c-16.14,38.16-24.32,78.69-24.32,120.46
							s8.18,82.3,24.32,120.46c15.59,36.85,37.9,69.95,66.32,98.37c28.42,28.42,61.51,50.73,98.37,66.32
							c38.16,16.14,78.69,24.32,120.46,24.32c41.77,0,82.3-8.18,120.46-24.32c36.85-15.59,69.95-37.9,98.37-66.32
							c28.42-28.42,50.73-61.51,66.32-98.37c16.14-38.16,24.32-78.69,24.32-120.46s-8.18-82.3-24.32-120.46
							c-15.59-36.85-37.9-69.95-66.32-98.37c-28.42-28.42-61.51-50.73-98.37-66.32C-674.23,293.47-714.77,285.29-756.54,285.29
							L-756.54,285.29z"/>
					</g>
					<path id="path2416_8_" class="st2" d="M-477.17,594.64c0.02,154.42-125.14,279.63-279.57,279.65
						c-154.42,0.02-279.63-125.14-279.65-279.57c0-0.03,0-0.05,0-0.08c-0.02-154.42,125.14-279.63,279.57-279.65
						s279.63,125.14,279.65,279.57C-477.17,594.59-477.17,594.61-477.17,594.64z"/>
					<g id="g3246_8_" transform="translate(220.968, 51.6129)">
						<path id="path3188_8_" class="st3" d="M-864.78,471.94c1.65-12.87,7.03-24.49,13.42-35.78l18.49,8.35l16.7-22.66l16.7,5.07
							c0.25,29.8-0.56,60.51,10.44,81.1l-8.35,10.44C-816.31,500.58-836.45,483.53-864.78,471.94z"/>
						<path id="path3190_8_" class="st3" d="M-895.85,502.82c-36.94-0.14-10.17-43.4-4.77-59.91c4.85-14.83-2.49-44.77-30.81-55.39
							v-37.98c55.77,16.16,61.99,53.34,94.09,36.27v18.82C-887.4,455.95-865.48,502.53-895.85,502.82z"/>
						<path id="path3192_8_" class="st3" d="M-1044.68,420.03c54.79-13.86,95.91-9.5,134.46-1.71c5.54,16.17,0.73,27.16-4.45,37.98
							c-37.7-6.16-78.01-7.74-126.59,5.13C-1049.47,449.04-1050.16,435.15-1044.68,420.03z"/>
						<path id="path3194_8_" class="st3" d="M-1012.23,387.47c-65.73,11.17-50.95,88.99,0,110v67.9
							c-144.37-41.67-118.28-198.7,0-214.58V387.47z"/>
						<path id="path3196_8_" class="st3" d="M-941.16,631.47c-19.56,2.65-39.9,2.17-60.66,0V461.71c20.22-2.06,40.44-2.75,60.66,0
							V631.47z"/>
						<path id="path3202_8_" class="st3" d="M-1214.58,546.82c35.17-17.01,42.94-54.34,94.16-91.9
							c1.47,17.42,3.46,34.41,10.86,47.08c-21.71,31.37-20.25,61.14,12.22,97.33c-7.56,17.32-16.75,29.74-26.71,39.84
							C-1169.71,611.99-1180.25,576.64-1214.58,546.82z"/>
						<path id="path3204_8_" class="st3" d="M-1051.1,672.2c13.03-14.39,16.64-25.01,22.2-36.41c34.58,7.28,74.85,10.24,135.28-2.07
							c6.32,12.66,3.91,24.52,1.78,36.41C-927.65,682.99-994.35,686.01-1051.1,672.2z"/>
						<path id="path3206_8_" class="st3" d="M-1150.86,666.57l4.44,19.24l26.64,1.78c30.72,21.75,63.58,42.19,108.35,55.36v-37.6
							c-24.24-4.13-39.86-16.34-51.51-32.27c34.48-37.1,41.47-83.66,19.66-93.14c-29.02-12.61-41.98,17.08-58.56,43.87
							C-1112.66,641.28-1128.27,658.69-1150.86,666.57z"/>
						<path id="path3208_8_" class="st3" d="M-940.96,348.55c0.14-28.75,22.18-25.27,32.58-14.91
							c-1.46-36.05-30.71-40.34-44.73-27.34c-4.16-6.83-9.53-12.03-18.09-16.29c-7.66,3.61-13.78,8.96-18.5,15.88
							c-13.24-12.09-43.4-9.1-44.73,27.2c11.15-9.63,32.17-13.03,32.17,15.6l0.14,55.04c19.7-1.47,40.06-1.62,61.23-0.15
							L-940.96,348.55z"/>
						<path id="path3216_8_" class="st3" d="M-940.9,744.25c0.14,28.75,22.18,25.27,32.58,14.91
							c-1.46,36.05-30.71,40.34-44.73,27.34c-4.16,6.83-9.53,12.03-18.09,16.29c-7.66-3.61-13.78-8.96-18.5-15.88
							c-13.24,12.09-43.4,9.1-44.73-27.2c11.15,9.63,32.17,13.03,32.17-15.6l0.14-55.04c19.7,1.47,40.06,1.62,61.23,0.15
							L-940.9,744.25z"/>
						<path id="path3218_8_" class="st3" d="M-932,524.79v65.04c74.38,24.74,62.6,117.39,0.95,115.17v37.44
							c79.74-7.9,110.61-57.36,111.1-105.56C-819.4,581.65-863.05,542.55-932,524.79z"/>
						<path id="path3222_8_" class="st3" d="M-811.76,634.57c0.1-8.49,0.85-16.03-4.76-32.68l17.13-11.42l19.35,15.86
							C-787.61,617.75-799.15,626.52-811.76,634.57z"/>
					</g>
				</g>
			</g>
		</g>
	</g>
	<g>
		<path class="st4" d="M619.18,957.81l-77.16,14.72l-4.39-5.41l74.91-23.68c16.09-6.26,9.98-44.55,16.69-39.16
			c10.11,11.95,14.19,24.17,5.01,36.97c23.36-8.04,31.03-17.59,28.62-28.11c-1.26-5.52-23.14-6.57-10.56-13.47
			c14.15-10.62,31.67,6.59,28.2,20.58l32.55-21.7c30.34-16.7,18.55-58.44,29.42-51.9c13.11,8.02,15.26,18.55,9.95,30.77
			c8.2-7.59,19-13.85,21.23-22.12c0.07-4.73,11.32-11.94,4.5-16.75c-11.9-8.41-10.27-20.38-4.02-16.87
			c8.03,3.43,21.04,17.6,24.1,10.28l3.9-10.48c1.54-4.43-31.87-11.16-31.68-14.21c-0.2-5.85,7.83-1.96,11.75-2.94
			c-4.51-4.62-16.99-6.37-13.52-13.86c6.66-12.19,30.71,13.23,46.06,19.84c4.36-8.21-4.11-17.27-28.07-27.37l5.75-2.06l-1.22-4.26
			c-17.27-13.81,4.2-25.6,29.74,7.13c-2.54-14.97-9.85-27.04-24.14-34.88l12.68-3.52c5.24-0.69-6.44-34.34,15.7-2.06
			c7.02-7.03,11.93-7.83,12.21,5.02c-3.59,12.21-3.89,23.57-1.95,34.31c14.75-20.6,34.55-17.03,49.13-29.48
			c-0.04,10.5-4.13,18.94-14.17,24.37l11,5.76c-23.17,10.28-26.53-6-38.24,5.22c-3.66,8.02-18.57,25.88-10.98,24.05
			c7.94-10.01,22.44-15.49,43.51-16.45c0.19,11.14-7.75,15.75-23.8,13.84c9.8,4.96,16.06,12.65,1.86,11.31
			c-10.52,3.76-22.97,3.32-31.55,11.26l-14.58,14.43c24.24-11.51,34.7-11.42,50.5-8.05c-2.81,9.18-13.24,8.09-19.86,12.13l1.23,4.03
			l-5.23,5.36c-18.51-3.05-34.43-0.53-47.77,7.58c15.56-4.49,26.15,3.05,46.07,6.92c-3.97,5.53-12.32,5.72-18.49,8.58l0.31,4.63
			c-15.11-2.26-20.12-14.78-45.34-6.77c22.26-3.3,35.35,7.75,44.28,25.33c-28.2,3.47-25.83-9.82-38.75-14.73
			c-18.86-5.94-35.16-0.62-50.29,9.8c23.5-4.16,30.77,3.21,54.86,0.33c-3.85,7.2-4.09,8.74-27.99,14.01l8.29,5.52
			c-7.22-0.97-12.18,7.2-21.65-2.93c-13.39-11.9-42.08,3.96-42.52,7.16c19.87-5.95,37.2-4.95,51.99,2.96
			c-6.86,6.23-16.03,10.07-30.27,8.62l-6.7,3.85c-12.72-4.14-29.9-4.08-56.86,5.2c34.33-0.71,38.98,4.02,54.2,15.1
			c-9.81,0.51-18.98,3.99-31.4-1.91l-0.35,6.98C656.98,963.7,644.38,953.66,619.18,957.81L619.18,957.81z"/>
		<path class="st4" d="M381.81,959.43l77.17,14.72l4.39-5.41l-74.91-23.67c-16.09-6.26-9.98-44.55-16.69-39.16
			c-10.11,11.95-14.19,24.17-5.01,36.97c-23.36-8.03-31.03-17.59-28.62-28.11c1.26-5.52,23.14-6.57,10.56-13.47
			c-14.15-10.62-31.68,6.59-28.2,20.58l-32.55-21.7c-30.34-16.71-18.55-58.44-29.42-51.9c-13.1,8.02-15.27,18.55-9.95,30.77
			c-8.2-7.59-19-13.85-21.23-22.12c-0.07-4.73-11.33-11.94-4.51-16.75c11.91-8.41,10.27-20.38,4.02-16.87
			c-8.03,3.43-21.04,17.6-24.1,10.28l-3.89-10.48c-1.54-4.43,31.86-11.16,31.68-14.21c0.2-5.85-7.83-1.96-11.75-2.94
			c4.51-4.62,16.99-6.37,13.52-13.86c-6.66-12.19-30.71,13.23-46.06,19.83c-4.36-8.21,4.11-17.27,28.07-27.37l-5.75-2.07l1.22-4.26
			c17.27-13.81-4.21-25.59-29.74,7.13c2.54-14.97,9.85-27.04,24.14-34.88l-12.68-3.52c-5.23-0.68,6.44-34.34-15.7-2.06
			c-7.02-7.02-11.93-7.83-12.2,5.02c3.59,12.21,3.89,23.56,1.95,34.31c-14.75-20.6-34.55-17.03-49.13-29.49
			c0.03,10.5,4.13,18.95,14.17,24.38l-10.99,5.76c23.17,10.28,26.53-6,38.24,5.22c3.66,8.02,18.58,25.89,10.98,24.05
			c-7.94-10.01-22.44-15.49-43.51-16.45c-0.19,11.14,7.75,15.75,23.8,13.84c-9.8,4.95-16.06,12.65-1.86,11.31
			c10.52,3.76,22.97,3.32,31.56,11.26l14.58,14.43c-24.24-11.52-34.69-11.42-50.5-8.05c2.81,9.18,13.24,8.09,19.86,12.13l-1.23,4.03
			l5.23,5.36c18.51-3.05,34.43-0.52,47.77,7.58c-15.56-4.5-26.15,3.05-46.07,6.92c3.97,5.53,12.32,5.72,18.49,8.58l-0.31,4.64
			c15.11-2.26,20.13-14.78,45.34-6.77c-22.26-3.3-35.35,7.75-44.28,25.33c28.2,3.47,25.83-9.82,38.75-14.73
			c18.86-5.94,35.16-0.62,50.29,9.8c-23.5-4.16-30.77,3.2-54.86,0.33c3.85,7.2,4.09,8.74,27.99,14.01l-8.29,5.52
			c7.22-0.97,12.18,7.2,21.65-2.93c13.39-11.9,42.08,3.96,42.52,7.16c-19.87-5.94-37.2-4.95-51.99,2.97
			c6.86,6.23,16.03,10.07,30.27,8.62l6.7,3.85c12.72-4.14,29.9-4.08,56.86,5.19c-34.33-0.71-38.98,4.03-54.19,15.1
			c9.81,0.51,18.98,4,31.39-1.9l0.35,6.99C344.01,965.32,356.61,955.28,381.81,959.43L381.81,959.43z"/>
		<path class="st5" d="M380.17,140.95c-20.05-4.72-38.98-2.44-56.28,10.07l-26.94,21.55l11.89,61.12l19.85,12.22l9.16-6.5
			l14.33-20.11l21.03,10.09l37.24-16.01l-21.22-62.53L380.17,140.95L380.17,140.95z"/>
		<path class="st5" d="M488.11,104.21c-29.38,2.52-56.86,34.53-91.19,37.67l7.62,71.46l23.96,3.98l18.13-18.7l23.32,12.42
			l22.26-5.65l5.5-84.39C492.1,111.88,490.93,109.56,488.11,104.21L488.11,104.21z"/>
		<path class="st5" d="M629.19,142.49c20.1-4.47,39-1.96,56.15,10.76L712,175.14l-21.41,53.65l-20.3,12.67l-18.85-23.24l-22.03,8.01
			l-31.38-11.69l21.99-62.26L629.19,142.49L629.19,142.49z"/>
		<path class="st5" d="M505.38,105.13c34.5-7.68,64.27,33.98,103.46,38.05l-8.5,71.36l-24.99,3.84l-19.94-19.92l-24.85,11.8
			l-17.78-4.74l-4.46-84.45L505.38,105.13L505.38,105.13z"/>
		<g>
			<path class="st6" d="M672.71,250.02c-53.68-25.94-108.87-34.37-169.77-33.66c-60.9-0.21-116.02,8.66-169.49,35.05
				c-12.3,6.64,5.51,58.15,21.81,48.34c77.68-41.35,216.12-40.48,296.04-1.21C667.69,308.22,685.07,256.57,672.71,250.02z
				 M413.23,260.2l-17.66,5.36c-1.8,0.55-4.05-1.59-5.02-4.76l-0.03-0.12c-0.96-3.17-0.28-6.2,1.51-6.75l17.66-5.36
				c1.8-0.55,4.05,1.59,5.01,4.76l0.04,0.12C415.71,256.63,415.03,259.65,413.23,260.2z M519.77,246.92
				c-0.03,4.66-2.13,8.49-4.77,8.49l-26.03,0.11c-2.64,0.01-4.87-3.79-4.84-8.46l0-0.17c0.03-4.67,2.12-8.49,4.77-8.5l26.03-0.11
				c2.64-0.01,4.87,3.8,4.84,8.46L519.77,246.92z M609.82,259.79l-0.02,0.12c-0.95,3.17-3.18,5.34-4.97,4.8l-17.71-5.21
				c-1.8-0.54-2.5-3.55-1.57-6.73l0.03-0.12c0.94-3.17,3.18-5.34,4.97-4.8l17.72,5.21C610.05,253.58,610.77,256.61,609.82,259.79z"
				/>
		</g>
		<path class="st7" d="M502.94,216.37c60.9-0.71,116.09,7.71,169.77,33.66c12.36,6.55-5.02,58.19-21.41,48.52
			c-79.91-39.27-218.36-40.14-296.04,1.21c-16.31,9.8-34.11-41.7-21.81-48.34C386.92,225.03,442.04,216.16,502.94,216.37
			L502.94,216.37z M409.7,248.57l-17.66,5.36c-1.8,0.55-2.48,3.58-1.51,6.75l0.03,0.12c0.96,3.17,3.22,5.31,5.02,4.76l17.66-5.36
			c1.8-0.55,2.48-3.58,1.52-6.75l-0.04-0.12C413.75,250.17,411.5,248.03,409.7,248.57L409.7,248.57z M590.54,247.83l17.72,5.21
			c1.79,0.53,2.5,3.56,1.56,6.74l-0.02,0.12c-0.95,3.17-3.18,5.34-4.97,4.8l-17.71-5.21c-1.8-0.54-2.5-3.55-1.57-6.73l0.03-0.12
			C586.51,249.47,588.76,247.3,590.54,247.83L590.54,247.83z M488.89,238.39l26.03-0.11c2.64-0.01,4.87,3.8,4.84,8.46l0,0.17
			c-0.03,4.66-2.13,8.49-4.77,8.49l-26.03,0.11c-2.64,0.01-4.87-3.79-4.84-8.46l0-0.17C484.15,242.23,486.25,238.41,488.89,238.39
			L488.89,238.39z"/>
		<g>
			<path class="st6" d="M624.35,95.79c-43.03-9.04-75.71-30.99-114.75-38.52l-2.48-7.77l12.46-8.93l-15.33-0.1l-4.65-14.61
				l-4.83,14.56l-15.33-0.09l12.35,9.09l-2.68,8.07c-38.9,8.33-71.12,30.95-113.98,40.89c-98.33-7.96-84.05,48.55-116.64,84.99
				c15.6-15.44,27.96-0.54,21.33,17.96c9.31-2.75,17.87,4.57,14.49,17.66c0.05,10.22,20.19,26.8,36.82,33.66
				c48.31-25.27,106.36-35.12,169.86-36.29c63.49-0.13,121.7,8.53,170.51,32.79c16.48-7.2,36.28-24.19,36.12-34.41
				c-3.64-13.01,4.76-20.51,14.13-17.95c-7.01-18.36,5.03-33.52,20.95-18.4C709.38,142.6,722.49,85.8,624.35,95.79z M342.67,239.34
				l9.94-12.69l13.17,4.37L342.67,239.34z M358.27,219.15l-12.18,0.29c-1.09,8.22-7.79,17.6-15.56,17.72
				c-8-1.83-14.77-4.69-18.83-9.85l8.85-1.08c2.89-0.28,3.33-4.23,0.89-5.98l-6.04-3.64l7.93-0.91l5.53-2.75
				c2.18-1.34,2.43-3.99-0.46-5.22l-12.21-5.38l9.97-3.14l2.47-5.66c0.86-1.93,1.07-4.12-2.12-4.64l-12.7-2.15l5.27-7.42
				c2.03-2.98,0.96-8.33-3.29-6.27l-8.09,5l-1.95-4.82l11.14-16.46l-17.08,1.56l-1.98-4.92l0.75-4.84
				c10.26-30.74,39.38-39.76,68.44-38.69l10.16-0.57c-9.55,14.19-10.59,26.61-7.73,38.21l8.87,7.27l-10.89,1.05
				c-3.73,0.13-4.74,2.75-3.01,5.38l4.72,5.44c-17.66,3.07-16.6,19.85-5.94,23.22l3.86-0.61l-0.42,3.06l-0.6,4.33
				c-0.31,3.16,2.39,6.75,5.27,4.57l5.35-4.57c1.64-1.91,4.77,0.17,4.06,2.5l-1.98,5.8c-1.2,3.06,1.61,5.77,4.67,2.49l3.18-4.07
				l2.03,6.03C383.75,225.84,373.64,229.09,358.27,219.15z M437.84,215.31l8.61-9.37l13.42,6.44L437.84,215.31z M451.37,198.3
				l-2.38-2.51l-9.17,1.81c-1.61,8.33-8.62,17.39-15.97,16.88c-7.44-2.52-13.64-6.01-17.11-11.61l8.44-0.38
				c3.48-0.06,3.12-4.29,1.27-6.06l-5.45-4.22l7.57-0.29c4.64-0.22,7.53-6.23,5.35-7.76l-11.17-6.5l9.66-2.41
				c4.66-1.13,5.76-8.96,1.07-10.51l-11.86-3.24l5.51-7.17c2.89-3.11,0.4-7.87-2.67-6.69l-8.01,4.46l-1.5-5.1l11.7-15.95
				l-10.99,0.14l3.13-9.98l-2.74-8.23c24.68-7.48,48.98-21.12,72.71-36.47l-1.71,10.87c1.14,17.78,0.81,30.23-2.16,46.66
				l-10.36,0.18c-3.61,0.09-5.87,2.92-3.24,5.27l4.08,5.96c-16.93,1.71-17.12,18.98-7.27,23.29l3.7-0.31l-0.62,3.1l-0.87,4.38
				c-0.62,3.49,2.54,6.83,4.66,5.11l5.38-4.25c1.96-1.92,4.96,0.86,3.66,2.88l-2.29,5.78c-0.58,2.95,2.63,4.66,4.24,2.93l3.3-3.91
				l1.5,6.34C474.99,207.23,465.2,209.73,451.37,198.3z M500,127.4l-3.12-39.66l3.55-29.86l3.18,29.91L500,127.4z M541.41,211.58
				l13.32-6.62l8.74,9.25L541.41,211.58z M583.51,152.62l5.65,7.05l-11.79,3.48c-3.82,1.62-3.42,9.25,1.29,10.49l9.7,2.21
				l-11.03,6.73c-2.71,1.81,0.68,7.64,5.52,7.65l7.57,0.13l-5.37,4.34c-2.58,1.56-1.79,5.29,1.4,6.03l8.45,0.21
				c-3.36,5.68-9.49,9.29-16.87,11.97c-7.34,0.67-14.53-8.25-16.32-16.54l-8.66-2.54l-2.87,3.48c-13.59,11.71-23.43,9.41-29.54-6.89
				l1.37-6.37l3.38,3.84c2.07,2.52,5.44-0.15,4.17-3.01l-2.41-5.74c-0.9-2.12,1.01-4.66,3.6-2.96l5.47,4.14
				c2.76,1.8,4.99-1.76,4.55-5.2l-0.96-4.36l-0.68-3.08l3.7,0.23c9.76-4.52,9.21-21.78-7.75-23.14l3.96-6.04
				c1.14-1.72-0.39-4.58-3.33-5.2l-10.38,0.03c-3.31-16.37-3.9-28.81-3.13-46.61l-1.93-10.83c24.05,14.86,48.61,28,73.45,34.97
				l-2.57,8.28l3.33,9.92l-11,0.09l12.03,15.7l-1.4,5.13l-8.09-4.29C582.52,144.41,581.09,149.79,583.51,152.62z M635.76,228.9
				l13.12-4.55l10.11,12.55L635.76,228.9z M700.89,154.2l-17.11-1.21l11.47,16.22l-1.85,4.86l-8.19-4.83
				c-3.26-1.47-5.67,2.87-3.16,6.34l5.42,7.31l-12.65,2.42c-3.22,1.17-2.3,7.89,0.57,10.29l10.04,2.94l-12.1,5.63
				c-3.16,1.55,1.09,7.17,5.22,7.87l7.95,0.75l-5.96,3.77c-2.63,1.67-1.56,5.16,1.01,5.96l8.87,0.9
				c-3.96,5.24-10.66,8.24-18.63,10.23c-7.76,0.04-14.66-9.19-15.92-17.39l-12.19-0.04c-15.16,10.25-25.33,7.21-30.54-9.11
				l1.91-6.07l3.27,4.01c1.95,1.85,5.34-0.28,4.61-2.58l-2.11-5.76c-1.07-2.16,1.98-4.57,4.01-2.58l5.44,4.46
				c2.56,1.72,5.43-1.68,5.17-4.68l-0.69-4.31l-0.48-3.05l3.87,0.53c10.59-3.59,11.31-20.38-6.42-23.09l4.61-5.54
				c1.37-1.9-0.37-4.53-3.12-5.32l-10.91-0.82l8.71-7.46c2.61-11.66,1.33-24.04-8.52-38.04l10.17,0.36
				c29.03-1.67,58.33,6.75,69.22,37.27l0.85,4.82L700.89,154.2z"/>
		</g>
		<path class="st7" d="M331.15,252.61c-16.63-6.86-36.77-23.44-36.82-33.66c3.37-13.08-5.18-20.4-14.49-17.66
			c6.63-18.5-5.73-33.41-21.33-17.96c32.58-36.43,18.31-92.95,116.64-84.99c42.85-9.93,75.08-32.56,113.98-40.89l2.68-8.07
			l-12.35-9.09l15.33,0.09l4.83-14.56l4.65,14.61l15.33,0.1l-12.46,8.93l2.48,7.77c39.04,7.53,71.72,29.48,114.75,38.52
			c98.14-9.99,85.03,46.81,118.36,82.57c-15.92-15.12-27.97,0.04-20.95,18.4c-9.37-2.56-17.77,4.94-14.13,17.95
			c0.16,10.22-19.64,27.21-36.12,34.41c-48.81-24.27-107.02-32.92-170.51-32.79C437.51,217.5,379.46,227.34,331.15,252.61
			L331.15,252.61z M500.42,57.87l3.18,29.91L500,127.4l-3.12-39.66L500.42,57.87L500.42,57.87z M658.99,236.9l-23.23-8l13.12-4.55
			L658.99,236.9L658.99,236.9z M563.48,214.2l-22.07-2.63l13.32-6.62L563.48,214.2L563.48,214.2z M437.84,215.31l22.03-2.94
			l-13.42-6.44L437.84,215.31L437.84,215.31z M342.67,239.34l23.11-8.32l-13.17-4.37L342.67,239.34L342.67,239.34z M367.03,109.89
			c-29.06-1.07-58.18,7.95-68.44,38.69l-0.75,4.84l1.98,4.92l17.08-1.56l-11.14,16.46l1.95,4.82l8.09-5
			c4.25-2.06,5.32,3.29,3.29,6.27l-5.27,7.42l12.7,2.15c3.18,0.52,2.98,2.71,2.12,4.64l-2.47,5.66l-9.97,3.14l12.21,5.38l0,0
			c2.89,1.23,2.65,3.89,0.46,5.22l-5.53,2.75l-7.93,0.91l6.04,3.64c2.44,1.75,2,5.7-0.89,5.98l-8.85,1.08
			c4.06,5.16,10.83,8.02,18.83,9.85c7.76-0.12,14.47-9.5,15.56-17.72l12.18-0.29c15.36,9.94,25.48,6.69,30.34-9.74l-2.03-6.03
			l-3.18,4.07c-3.06,3.28-5.87,0.57-4.67-2.49l1.98-5.8c0.71-2.33-2.41-4.41-4.06-2.5l-5.35,4.57c-2.87,2.18-5.58-1.41-5.27-4.57
			l0.6-4.33l0.42-3.06l-3.86,0.61c-10.66-3.37-11.73-20.15,5.94-23.22l-4.72-5.44c-1.73-2.64-0.73-5.25,3.01-5.38l10.89-1.05
			l-8.87-7.27c-2.85-11.6-1.82-24.01,7.73-38.21L367.03,109.89L367.03,109.89z M478.79,76.51c-23.73,15.36-48.03,29-72.71,36.47
			l2.74,8.23l-3.13,9.98l10.99-0.14l-11.7,15.95l1.5,5.1l8.01-4.46c3.07-1.18,5.56,3.58,2.67,6.69l-5.51,7.17l11.86,3.24
			c4.69,1.55,3.59,9.38-1.07,10.51l-9.66,2.41l11.17,6.5l0,0c2.18,1.53-0.71,7.53-5.35,7.76l-7.57,0.29l5.45,4.22
			c1.85,1.77,2.21,5.99-1.27,6.06l-8.44,0.38c3.47,5.61,9.67,9.1,17.11,11.61c7.35,0.51,14.36-8.55,15.97-16.88l9.17-1.81l2.38,2.51
			c13.83,11.43,23.62,8.92,29.39-7.5l-1.5-6.34l-3.3,3.91c-1.61,1.73-4.82,0.02-4.24-2.93l2.29-5.78c1.3-2.03-1.7-4.8-3.66-2.88
			l-5.38,4.25c-2.11,1.72-5.28-1.61-4.66-5.11l0.87-4.38l0.63-3.1l-3.7,0.31c-9.85-4.31-9.66-21.59,7.27-23.29l-4.08-5.96
			c-2.63-2.35-0.37-5.18,3.24-5.27l10.36-0.18c2.97-16.43,3.31-28.88,2.16-46.66L478.79,76.51L478.79,76.51z M520.28,76.09
			c24.05,14.86,48.61,28,73.45,34.97l-2.57,8.28l3.33,9.92l-11,0.09l12.03,15.7l-1.4,5.13l-8.09-4.29
			c-3.52-1.47-4.95,3.91-2.53,6.75l5.65,7.05l-11.79,3.48c-3.82,1.62-3.42,9.25,1.29,10.49l9.7,2.21l-11.03,6.73l0,0
			c-2.71,1.81,0.68,7.64,5.52,7.65l7.57,0.13l-5.37,4.34c-2.58,1.56-1.79,5.29,1.4,6.03l8.45,0.21c-3.36,5.68-9.49,9.29-16.87,11.97
			c-7.34,0.67-14.53-8.25-16.32-16.54l-8.66-2.54l-2.87,3.48c-13.59,11.71-23.43,9.41-29.54-6.89l1.37-6.37l3.38,3.84
			c2.07,2.52,5.44-0.15,4.17-3.01l-2.41-5.74c-0.9-2.12,1.01-4.66,3.6-2.96l5.47,4.14c2.76,1.8,4.99-1.76,4.55-5.2l-0.96-4.36
			l-0.68-3.08l3.7,0.23c9.76-4.52,9.21-21.78-7.75-23.14l3.96-6.04c1.14-1.72-0.39-4.58-3.33-5.2l-10.38,0.03
			c-3.31-16.37-3.9-28.81-3.13-46.61L520.28,76.09L520.28,76.09z M632.7,107.16c29.03-1.67,58.33,6.75,69.22,37.27l0.85,4.82
			l-1.88,4.96l-17.11-1.21l11.47,16.22l-1.85,4.86l-8.19-4.83c-3.26-1.47-5.67,2.87-3.16,6.34l5.42,7.31l-12.65,2.42
			c-3.22,1.17-2.3,7.89,0.57,10.29l10.04,2.94l-12.1,5.63l0,0c-3.16,1.55,1.09,7.17,5.22,7.87l7.95,0.75l-5.96,3.77
			c-2.63,1.67-1.56,5.16,1.01,5.96l8.87,0.9c-3.96,5.24-10.66,8.24-18.63,10.23c-7.76,0.04-14.66-9.19-15.92-17.39l-12.19-0.04
			c-15.16,10.25-25.33,7.21-30.54-9.11l1.91-6.07l3.27,4.01c1.95,1.85,5.34-0.28,4.61-2.58l-2.11-5.76
			c-1.07-2.16,1.98-4.57,4.01-2.58l5.44,4.46c2.56,1.72,5.43-1.68,5.17-4.68l-0.69-4.31l-0.48-3.05l3.87,0.53
			c10.59-3.59,11.31-20.38-6.42-23.09l4.61-5.54c1.37-1.9-0.37-4.53-3.12-5.32l-10.91-0.82l8.71-7.46
			c2.61-11.66,1.33-24.04-8.52-38.04L632.7,107.16L632.7,107.16z"/>
		<path class="st3" d="M559.28,175.07c-5.97-0.04-10.84,4.78-10.88,10.74c-0.04,5.97,4.78,10.84,10.75,10.88
			c5.97,0.04,10.84-4.78,10.88-10.75C570.07,179.97,565.25,175.1,559.28,175.07L559.28,175.07z"/>
		<path class="st3" d="M442.65,177.64c5.97-0.16,10.94,4.55,11.1,10.52c0.16,5.97-4.55,10.94-10.52,11.1
			c-5.97,0.16-10.94-4.55-11.1-10.52C431.97,182.77,436.68,177.8,442.65,177.64L442.65,177.64z"/>
		<path class="st3" d="M350.01,199.7c5.97-0.16,10.94,4.55,11.1,10.52c0.16,5.97-4.55,10.94-10.52,11.1
			c-5.97,0.16-10.94-4.55-11.1-10.52C339.33,204.83,344.04,199.86,350.01,199.7L350.01,199.7z"/>
		<path class="st3" d="M651.56,196.6c-5.97-0.04-10.85,4.78-10.88,10.75c-0.04,5.97,4.78,10.84,10.75,10.88
			c5.97,0.04,10.84-4.77,10.88-10.75C662.35,201.51,657.53,196.63,651.56,196.6L651.56,196.6z"/>
		<polygon class="st7" points="437.84,215.32 459.87,212.37 446.46,205.94 437.84,215.32 		"/>
		<path class="st5" d="M500.88,136.59c5.65,0.04,10.17,9.06,10.11,20.16c-0.07,11.1-4.71,20.07-10.35,20.03
			c-5.65-0.03-10.17-9.06-10.1-20.16C490.6,145.52,495.23,136.55,500.88,136.59L500.88,136.59z"/>
		<path class="st5" d="M391.76,162.49c3.88-0.21,7.35,5.8,7.76,13.42c0.41,7.62-2.41,13.96-6.29,14.17
			c-3.88,0.21-7.35-5.8-7.76-13.42C385.07,169.04,387.89,162.69,391.76,162.49L391.76,162.49z"/>
		<path class="st5" d="M610.46,161.07c-3.87-0.25-7.42,5.71-7.92,13.33c-0.5,7.61,2.24,13.99,6.11,14.25
			c3.88,0.25,7.42-5.71,7.92-13.33C617.08,167.7,614.34,161.32,610.46,161.07L610.46,161.07z"/>
	</g>
</g>
</svg>
